<mxfile host="65bd71144e">
    <diagram id="bcQJQtfXbioQnCYOyNII" name="Page-1">
        <mxGraphModel dx="353" dy="566" grid="1" gridSize="10" guides="1" tooltips="1" connect="1" arrows="1" fold="1" page="1" pageScale="1" pageWidth="1169" pageHeight="827" math="0" shadow="0">
            <root>
                <mxCell id="0"/>
                <mxCell id="1" parent="0"/>
                <mxCell id="WxK3m7Mp39lA3C4-1pTr-38" value="Elasticsearch-net" style="shape=ext;double=1;rounded=0;whiteSpace=wrap;html=1;shadow=1;glass=0;fillColor=none;verticalAlign=top;" parent="1" vertex="1">
                    <mxGeometry x="850" y="101" width="240" height="419" as="geometry"/>
                </mxCell>
                <mxCell id="WxK3m7Mp39lA3C4-1pTr-39" value="Core Services" style="shape=ext;double=1;rounded=0;whiteSpace=wrap;html=1;shadow=1;glass=0;fillColor=none;verticalAlign=top;" parent="1" vertex="1">
                    <mxGeometry x="250" y="101" width="590" height="419" as="geometry"/>
                </mxCell>
                <mxCell id="WxK3m7Mp39lA3C4-1pTr-37" value="Prometheus-net" style="shape=ext;double=1;rounded=0;whiteSpace=wrap;html=1;shadow=1;glass=0;fillColor=none;verticalAlign=top;" parent="1" vertex="1">
                    <mxGeometry y="101" width="240" height="419" as="geometry"/>
                </mxCell>
                <mxCell id="WxK3m7Mp39lA3C4-1pTr-43" value="Tasks" style="shape=ext;double=1;rounded=0;whiteSpace=wrap;html=1;shadow=1;glass=0;fillColor=#d5e8d4;align=right;labelBackgroundColor=none;strokeColor=#82b366;opacity=30;" parent="1" vertex="1">
                    <mxGeometry y="330" width="1160" height="180" as="geometry"/>
                </mxCell>
                <mxCell id="WxK3m7Mp39lA3C4-1pTr-42" value="Visualization" style="shape=ext;double=1;rounded=0;whiteSpace=wrap;html=1;shadow=1;glass=0;fillColor=#dae8fc;align=right;labelBackgroundColor=none;strokeColor=#6c8ebf;opacity=30;" parent="1" vertex="1">
                    <mxGeometry y="230" width="1160" height="80" as="geometry"/>
                </mxCell>
                <mxCell id="WxK3m7Mp39lA3C4-1pTr-40" value="Servers" style="shape=ext;double=1;rounded=0;whiteSpace=wrap;html=1;shadow=1;glass=0;fillColor=#ffe6cc;align=right;labelBackgroundColor=none;strokeColor=#d79b00;opacity=30;" parent="1" vertex="1">
                    <mxGeometry y="130" width="1160" height="80" as="geometry"/>
                </mxCell>
                <mxCell id="WxK3m7Mp39lA3C4-1pTr-1" value="" style="sketch=0;aspect=fixed;html=1;points=[];align=center;image;fontSize=12;image=img/lib/mscae/Docker.svg;" parent="1" vertex="1">
                    <mxGeometry x="520" y="20" width="50" height="41" as="geometry"/>
                </mxCell>
                <mxCell id="WxK3m7Mp39lA3C4-1pTr-48" style="edgeStyle=orthogonalEdgeStyle;rounded=0;orthogonalLoop=1;jettySize=auto;html=1;exitX=0.5;exitY=1;exitDx=0;exitDy=0;entryX=0.5;entryY=0;entryDx=0;entryDy=0;fillColor=#f8cecc;strokeColor=#b85450;" parent="1" source="WxK3m7Mp39lA3C4-1pTr-7" target="WxK3m7Mp39lA3C4-1pTr-13" edge="1">
                    <mxGeometry relative="1" as="geometry"/>
                </mxCell>
                <mxCell id="WxK3m7Mp39lA3C4-1pTr-52" style="edgeStyle=orthogonalEdgeStyle;rounded=0;orthogonalLoop=1;jettySize=auto;html=1;exitX=1;exitY=0.5;exitDx=0;exitDy=0;entryX=0;entryY=0.5;entryDx=0;entryDy=0;" parent="1" source="WxK3m7Mp39lA3C4-1pTr-7" target="WxK3m7Mp39lA3C4-1pTr-11" edge="1">
                    <mxGeometry relative="1" as="geometry"/>
                </mxCell>
                <mxCell id="WxK3m7Mp39lA3C4-1pTr-7" value="" style="strokeColor=#dddddd;shadow=1;strokeWidth=1;rounded=1;absoluteArcSize=1;arcSize=2;" parent="1" vertex="1">
                    <mxGeometry x="280" y="140" width="200" height="60" as="geometry"/>
                </mxCell>
                <mxCell id="WxK3m7Mp39lA3C4-1pTr-8" value="&lt;font color=&quot;#000000&quot;&gt;mariadb&lt;/font&gt;&lt;br&gt;3306" style="sketch=0;dashed=0;connectable=0;html=1;fillColor=#5184F3;strokeColor=none;shape=mxgraph.gcp2.hexIcon;prIcon=container_optimized_os;part=1;labelPosition=right;verticalLabelPosition=middle;align=left;verticalAlign=middle;spacingLeft=5;fontColor=#999999;fontSize=12;" parent="WxK3m7Mp39lA3C4-1pTr-7" vertex="1">
                    <mxGeometry y="0.5" width="44" height="39" relative="1" as="geometry">
                        <mxPoint x="5" y="-19.5" as="offset"/>
                    </mxGeometry>
                </mxCell>
                <mxCell id="WxK3m7Mp39lA3C4-1pTr-58" style="edgeStyle=orthogonalEdgeStyle;rounded=0;orthogonalLoop=1;jettySize=auto;html=1;exitX=1;exitY=0.5;exitDx=0;exitDy=0;entryX=0.25;entryY=1;entryDx=0;entryDy=0;fillColor=#f8cecc;strokeColor=#b85450;" parent="1" source="WxK3m7Mp39lA3C4-1pTr-9" target="WxK3m7Mp39lA3C4-1pTr-7" edge="1">
                    <mxGeometry relative="1" as="geometry">
                        <Array as="points">
                            <mxPoint x="550" y="370"/>
                            <mxPoint x="550" y="320"/>
                            <mxPoint x="330" y="320"/>
                        </Array>
                    </mxGeometry>
                </mxCell>
                <mxCell id="WxK3m7Mp39lA3C4-1pTr-63" style="edgeStyle=orthogonalEdgeStyle;rounded=0;orthogonalLoop=1;jettySize=auto;html=1;exitX=1;exitY=0.75;exitDx=0;exitDy=0;fillColor=#d5e8d4;strokeColor=#82b366;" parent="1" source="WxK3m7Mp39lA3C4-1pTr-9" edge="1">
                    <mxGeometry relative="1" as="geometry">
                        <mxPoint x="520" y="420" as="targetPoint"/>
                    </mxGeometry>
                </mxCell>
                <mxCell id="WxK3m7Mp39lA3C4-1pTr-9" value="" style="strokeColor=#dddddd;shadow=1;strokeWidth=1;rounded=1;absoluteArcSize=1;arcSize=2;" parent="1" vertex="1">
                    <mxGeometry x="280" y="340" width="200" height="60" as="geometry"/>
                </mxCell>
                <mxCell id="WxK3m7Mp39lA3C4-1pTr-10" value="&lt;font color=&quot;#000000&quot;&gt;symbolUpdater&lt;/font&gt;&lt;br&gt;#dbWorker" style="sketch=0;dashed=0;connectable=0;html=1;fillColor=#5184F3;strokeColor=none;shape=mxgraph.gcp2.hexIcon;prIcon=container_optimized_os;part=1;labelPosition=right;verticalLabelPosition=middle;align=left;verticalAlign=middle;spacingLeft=5;fontColor=#999999;fontSize=12;" parent="WxK3m7Mp39lA3C4-1pTr-9" vertex="1">
                    <mxGeometry y="0.5" width="44" height="39" relative="1" as="geometry">
                        <mxPoint x="5" y="-19.5" as="offset"/>
                    </mxGeometry>
                </mxCell>
                <mxCell id="WxK3m7Mp39lA3C4-1pTr-11" value="" style="strokeColor=#dddddd;shadow=1;strokeWidth=1;rounded=1;absoluteArcSize=1;arcSize=2;" parent="1" vertex="1">
                    <mxGeometry x="610" y="140" width="200" height="60" as="geometry"/>
                </mxCell>
                <mxCell id="WxK3m7Mp39lA3C4-1pTr-12" value="&lt;font color=&quot;#000000&quot;&gt;Adminer&lt;/font&gt;&lt;br&gt;8070" style="sketch=0;dashed=0;connectable=0;html=1;fillColor=#5184F3;strokeColor=none;shape=mxgraph.gcp2.hexIcon;prIcon=container_optimized_os;part=1;labelPosition=right;verticalLabelPosition=middle;align=left;verticalAlign=middle;spacingLeft=5;fontColor=#999999;fontSize=12;" parent="WxK3m7Mp39lA3C4-1pTr-11" vertex="1">
                    <mxGeometry y="0.5" width="44" height="39" relative="1" as="geometry">
                        <mxPoint x="5" y="-19.5" as="offset"/>
                    </mxGeometry>
                </mxCell>
                <mxCell id="WxK3m7Mp39lA3C4-1pTr-13" value="" style="strokeColor=#dddddd;shadow=1;strokeWidth=1;rounded=1;absoluteArcSize=1;arcSize=2;" parent="1" vertex="1">
                    <mxGeometry x="450" y="240" width="200" height="60" as="geometry"/>
                </mxCell>
                <mxCell id="WxK3m7Mp39lA3C4-1pTr-14" value="&lt;font color=&quot;#000000&quot;&gt;Grafana&lt;/font&gt;&lt;br&gt;3080" style="sketch=0;dashed=0;connectable=0;html=1;fillColor=#5184F3;strokeColor=none;shape=mxgraph.gcp2.hexIcon;prIcon=container_optimized_os;part=1;labelPosition=right;verticalLabelPosition=middle;align=left;verticalAlign=middle;spacingLeft=5;fontColor=#999999;fontSize=12;" parent="WxK3m7Mp39lA3C4-1pTr-13" vertex="1">
                    <mxGeometry y="0.5" width="44" height="39" relative="1" as="geometry">
                        <mxPoint x="5" y="-19.5" as="offset"/>
                    </mxGeometry>
                </mxCell>
                <mxCell id="WxK3m7Mp39lA3C4-1pTr-59" style="edgeStyle=orthogonalEdgeStyle;rounded=0;orthogonalLoop=1;jettySize=auto;html=1;exitX=0;exitY=0.5;exitDx=0;exitDy=0;fillColor=#f8cecc;strokeColor=#b85450;" parent="1" source="WxK3m7Mp39lA3C4-1pTr-15" edge="1">
                    <mxGeometry relative="1" as="geometry">
                        <mxPoint x="550" y="370.33333333333337" as="targetPoint"/>
                    </mxGeometry>
                </mxCell>
                <mxCell id="WxK3m7Mp39lA3C4-1pTr-66" style="edgeStyle=orthogonalEdgeStyle;rounded=0;orthogonalLoop=1;jettySize=auto;html=1;exitX=1;exitY=0.5;exitDx=0;exitDy=0;fillColor=#d5e8d4;strokeColor=#82b366;" parent="1" source="WxK3m7Mp39lA3C4-1pTr-15" edge="1">
                    <mxGeometry relative="1" as="geometry">
                        <mxPoint x="830" y="370.33333333333337" as="targetPoint"/>
                    </mxGeometry>
                </mxCell>
                <mxCell id="WxK3m7Mp39lA3C4-1pTr-15" value="" style="strokeColor=#dddddd;shadow=1;strokeWidth=1;rounded=1;absoluteArcSize=1;arcSize=2;" parent="1" vertex="1">
                    <mxGeometry x="610" y="340" width="200" height="60" as="geometry"/>
                </mxCell>
                <mxCell id="WxK3m7Mp39lA3C4-1pTr-16" value="&lt;font color=&quot;#000000&quot;&gt;dataMiner&lt;/font&gt;&lt;br&gt;#dbMiner" style="sketch=0;dashed=0;connectable=0;html=1;fillColor=#5184F3;strokeColor=none;shape=mxgraph.gcp2.hexIcon;prIcon=container_optimized_os;part=1;labelPosition=right;verticalLabelPosition=middle;align=left;verticalAlign=middle;spacingLeft=5;fontColor=#999999;fontSize=12;" parent="WxK3m7Mp39lA3C4-1pTr-15" vertex="1">
                    <mxGeometry y="0.5" width="44" height="39" relative="1" as="geometry">
                        <mxPoint x="5" y="-19.5" as="offset"/>
                    </mxGeometry>
                </mxCell>
                <mxCell id="WxK3m7Mp39lA3C4-1pTr-61" style="edgeStyle=orthogonalEdgeStyle;rounded=0;orthogonalLoop=1;jettySize=auto;html=1;exitX=1;exitY=0.5;exitDx=0;exitDy=0;fillColor=#f8cecc;strokeColor=#b85450;" parent="1" source="WxK3m7Mp39lA3C4-1pTr-19" edge="1">
                    <mxGeometry relative="1" as="geometry">
                        <mxPoint x="550" y="370" as="targetPoint"/>
                    </mxGeometry>
                </mxCell>
                <mxCell id="WxK3m7Mp39lA3C4-1pTr-62" style="edgeStyle=orthogonalEdgeStyle;rounded=0;orthogonalLoop=1;jettySize=auto;html=1;exitX=1;exitY=0.25;exitDx=0;exitDy=0;entryX=0;entryY=0.5;entryDx=0;entryDy=0;fillColor=#d5e8d4;strokeColor=#82b366;" parent="1" source="WxK3m7Mp39lA3C4-1pTr-19" target="WxK3m7Mp39lA3C4-1pTr-33" edge="1">
                    <mxGeometry relative="1" as="geometry">
                        <Array as="points">
                            <mxPoint x="520" y="455"/>
                            <mxPoint x="520" y="420"/>
                            <mxPoint x="830" y="420"/>
                            <mxPoint x="830" y="370"/>
                        </Array>
                    </mxGeometry>
                </mxCell>
                <mxCell id="WxK3m7Mp39lA3C4-1pTr-19" value="" style="strokeColor=#dddddd;shadow=1;strokeWidth=1;rounded=1;absoluteArcSize=1;arcSize=2;" parent="1" vertex="1">
                    <mxGeometry x="280" y="440" width="200" height="60" as="geometry"/>
                </mxCell>
                <mxCell id="WxK3m7Mp39lA3C4-1pTr-20" value="&lt;font color=&quot;#000000&quot;&gt;MACDentry&lt;/font&gt;&lt;br&gt;#MACDentry" style="sketch=0;dashed=0;connectable=0;html=1;fillColor=#5184F3;strokeColor=none;shape=mxgraph.gcp2.hexIcon;prIcon=container_optimized_os;part=1;labelPosition=right;verticalLabelPosition=middle;align=left;verticalAlign=middle;spacingLeft=5;fontColor=#999999;fontSize=12;" parent="WxK3m7Mp39lA3C4-1pTr-19" vertex="1">
                    <mxGeometry y="0.5" width="44" height="39" relative="1" as="geometry">
                        <mxPoint x="5" y="-19.5" as="offset"/>
                    </mxGeometry>
                </mxCell>
                <mxCell id="WxK3m7Mp39lA3C4-1pTr-60" style="edgeStyle=orthogonalEdgeStyle;rounded=0;orthogonalLoop=1;jettySize=auto;html=1;exitX=0;exitY=0.5;exitDx=0;exitDy=0;fillColor=#f8cecc;strokeColor=#b85450;" parent="1" source="WxK3m7Mp39lA3C4-1pTr-21" edge="1">
                    <mxGeometry relative="1" as="geometry">
                        <mxPoint x="550" y="370" as="targetPoint"/>
                    </mxGeometry>
                </mxCell>
                <mxCell id="WxK3m7Mp39lA3C4-1pTr-64" style="edgeStyle=orthogonalEdgeStyle;rounded=0;orthogonalLoop=1;jettySize=auto;html=1;exitX=1;exitY=0.25;exitDx=0;exitDy=0;fillColor=#d5e8d4;strokeColor=#82b366;" parent="1" source="WxK3m7Mp39lA3C4-1pTr-21" edge="1">
                    <mxGeometry relative="1" as="geometry">
                        <mxPoint x="830" y="420" as="targetPoint"/>
                    </mxGeometry>
                </mxCell>
                <mxCell id="WxK3m7Mp39lA3C4-1pTr-21" value="" style="strokeColor=#dddddd;shadow=1;strokeWidth=1;rounded=1;absoluteArcSize=1;arcSize=2;" parent="1" vertex="1">
                    <mxGeometry x="610" y="440" width="200" height="60" as="geometry"/>
                </mxCell>
                <mxCell id="WxK3m7Mp39lA3C4-1pTr-22" value="&lt;font color=&quot;#000000&quot;&gt;TSLexit&lt;/font&gt;&lt;br&gt;#TSLexit" style="sketch=0;dashed=0;connectable=0;html=1;fillColor=#5184F3;strokeColor=none;shape=mxgraph.gcp2.hexIcon;prIcon=container_optimized_os;part=1;labelPosition=right;verticalLabelPosition=middle;align=left;verticalAlign=middle;spacingLeft=5;fontColor=#999999;fontSize=12;" parent="WxK3m7Mp39lA3C4-1pTr-21" vertex="1">
                    <mxGeometry y="0.5" width="44" height="39" relative="1" as="geometry">
                        <mxPoint x="5" y="-19.5" as="offset"/>
                    </mxGeometry>
                </mxCell>
                <mxCell id="WxK3m7Mp39lA3C4-1pTr-47" style="edgeStyle=orthogonalEdgeStyle;rounded=0;orthogonalLoop=1;jettySize=auto;html=1;exitX=0.75;exitY=1;exitDx=0;exitDy=0;entryX=0;entryY=0.5;entryDx=0;entryDy=0;fillColor=#d5e8d4;strokeColor=#82b366;" parent="1" source="WxK3m7Mp39lA3C4-1pTr-25" target="WxK3m7Mp39lA3C4-1pTr-13" edge="1">
                    <mxGeometry relative="1" as="geometry"/>
                </mxCell>
                <mxCell id="WxK3m7Mp39lA3C4-1pTr-25" value="" style="strokeColor=#dddddd;shadow=1;strokeWidth=1;rounded=1;absoluteArcSize=1;arcSize=2;" parent="1" vertex="1">
                    <mxGeometry x="20" y="140" width="200" height="60" as="geometry"/>
                </mxCell>
                <mxCell id="WxK3m7Mp39lA3C4-1pTr-26" value="&lt;font color=&quot;#000000&quot;&gt;Prometheus Server&lt;/font&gt;&lt;br&gt;9090" style="sketch=0;dashed=0;connectable=0;html=1;fillColor=#5184F3;strokeColor=none;shape=mxgraph.gcp2.hexIcon;prIcon=container_optimized_os;part=1;labelPosition=right;verticalLabelPosition=middle;align=left;verticalAlign=middle;spacingLeft=5;fontColor=#999999;fontSize=12;" parent="WxK3m7Mp39lA3C4-1pTr-25" vertex="1">
                    <mxGeometry y="0.5" width="44" height="39" relative="1" as="geometry">
                        <mxPoint x="5" y="-19.5" as="offset"/>
                    </mxGeometry>
                </mxCell>
                <mxCell id="WxK3m7Mp39lA3C4-1pTr-45" style="edgeStyle=orthogonalEdgeStyle;rounded=0;orthogonalLoop=1;jettySize=auto;html=1;entryX=0.5;entryY=1;entryDx=0;entryDy=0;fillColor=#d5e8d4;strokeColor=#82b366;" parent="1" source="WxK3m7Mp39lA3C4-1pTr-27" target="WxK3m7Mp39lA3C4-1pTr-25" edge="1">
                    <mxGeometry relative="1" as="geometry"/>
                </mxCell>
                <mxCell id="WxK3m7Mp39lA3C4-1pTr-46" style="edgeStyle=orthogonalEdgeStyle;rounded=0;orthogonalLoop=1;jettySize=auto;html=1;exitX=1;exitY=0.25;exitDx=0;exitDy=0;entryX=0;entryY=0.5;entryDx=0;entryDy=0;fillColor=#d5e8d4;strokeColor=#000000;" parent="1" source="WxK3m7Mp39lA3C4-1pTr-27" target="WxK3m7Mp39lA3C4-1pTr-7" edge="1">
                    <mxGeometry relative="1" as="geometry">
                        <Array as="points">
                            <mxPoint x="260" y="355"/>
                            <mxPoint x="260" y="170"/>
                        </Array>
                    </mxGeometry>
                </mxCell>
                <mxCell id="WxK3m7Mp39lA3C4-1pTr-27" value="" style="strokeColor=#dddddd;shadow=1;strokeWidth=1;rounded=1;absoluteArcSize=1;arcSize=2;" parent="1" vertex="1">
                    <mxGeometry x="20" y="340" width="200" height="60" as="geometry"/>
                </mxCell>
                <mxCell id="WxK3m7Mp39lA3C4-1pTr-28" value="&lt;font color=&quot;#000000&quot;&gt;SQLexporter&lt;/font&gt;&lt;br&gt;9104" style="sketch=0;dashed=0;connectable=0;html=1;fillColor=#5184F3;strokeColor=none;shape=mxgraph.gcp2.hexIcon;prIcon=container_optimized_os;part=1;labelPosition=right;verticalLabelPosition=middle;align=left;verticalAlign=middle;spacingLeft=5;fontColor=#999999;fontSize=12;" parent="WxK3m7Mp39lA3C4-1pTr-27" vertex="1">
                    <mxGeometry y="0.5" width="44" height="39" relative="1" as="geometry">
                        <mxPoint x="5" y="-19.5" as="offset"/>
                    </mxGeometry>
                </mxCell>
                <mxCell id="WxK3m7Mp39lA3C4-1pTr-29" value="" style="strokeColor=#dddddd;shadow=1;strokeWidth=1;rounded=1;absoluteArcSize=1;arcSize=2;" parent="1" vertex="1">
                    <mxGeometry x="870" y="240" width="200" height="60" as="geometry"/>
                </mxCell>
                <mxCell id="WxK3m7Mp39lA3C4-1pTr-30" value="&lt;font color=&quot;#000000&quot;&gt;Kibana&lt;/font&gt;&lt;br&gt;5601" style="sketch=0;dashed=0;connectable=0;html=1;fillColor=#5184F3;strokeColor=none;shape=mxgraph.gcp2.hexIcon;prIcon=container_optimized_os;part=1;labelPosition=right;verticalLabelPosition=middle;align=left;verticalAlign=middle;spacingLeft=5;fontColor=#999999;fontSize=12;" parent="WxK3m7Mp39lA3C4-1pTr-29" vertex="1">
                    <mxGeometry y="0.5" width="44" height="39" relative="1" as="geometry">
                        <mxPoint x="5" y="-19.5" as="offset"/>
                    </mxGeometry>
                </mxCell>
                <mxCell id="WxK3m7Mp39lA3C4-1pTr-50" style="edgeStyle=orthogonalEdgeStyle;rounded=0;orthogonalLoop=1;jettySize=auto;html=1;exitX=0.5;exitY=1;exitDx=0;exitDy=0;entryX=0.5;entryY=0;entryDx=0;entryDy=0;fillColor=#d5e8d4;strokeColor=#82b366;" parent="1" source="WxK3m7Mp39lA3C4-1pTr-31" target="WxK3m7Mp39lA3C4-1pTr-29" edge="1">
                    <mxGeometry relative="1" as="geometry"/>
                </mxCell>
                <mxCell id="WxK3m7Mp39lA3C4-1pTr-68" style="edgeStyle=orthogonalEdgeStyle;rounded=0;orthogonalLoop=1;jettySize=auto;html=1;exitX=0;exitY=0.5;exitDx=0;exitDy=0;entryX=1;entryY=0.5;entryDx=0;entryDy=0;fillColor=#d5e8d4;strokeColor=#82b366;" parent="1" source="WxK3m7Mp39lA3C4-1pTr-31" target="WxK3m7Mp39lA3C4-1pTr-13" edge="1">
                    <mxGeometry relative="1" as="geometry">
                        <Array as="points">
                            <mxPoint x="830" y="170"/>
                            <mxPoint x="830" y="270"/>
                        </Array>
                    </mxGeometry>
                </mxCell>
                <mxCell id="WxK3m7Mp39lA3C4-1pTr-31" value="" style="strokeColor=#dddddd;shadow=1;strokeWidth=1;rounded=1;absoluteArcSize=1;arcSize=2;" parent="1" vertex="1">
                    <mxGeometry x="870" y="140" width="200" height="60" as="geometry"/>
                </mxCell>
                <mxCell id="WxK3m7Mp39lA3C4-1pTr-32" value="&lt;font color=&quot;#000000&quot;&gt;Elasticsearch&lt;/font&gt;&lt;br&gt;9200" style="sketch=0;dashed=0;connectable=0;html=1;fillColor=#5184F3;strokeColor=none;shape=mxgraph.gcp2.hexIcon;prIcon=container_optimized_os;part=1;labelPosition=right;verticalLabelPosition=middle;align=left;verticalAlign=middle;spacingLeft=5;fontColor=#999999;fontSize=12;" parent="WxK3m7Mp39lA3C4-1pTr-31" vertex="1">
                    <mxGeometry y="0.5" width="44" height="39" relative="1" as="geometry">
                        <mxPoint x="5" y="-19.5" as="offset"/>
                    </mxGeometry>
                </mxCell>
                <mxCell id="WxK3m7Mp39lA3C4-1pTr-67" style="edgeStyle=orthogonalEdgeStyle;rounded=0;orthogonalLoop=1;jettySize=auto;html=1;exitX=0;exitY=0.25;exitDx=0;exitDy=0;entryX=0;entryY=0.75;entryDx=0;entryDy=0;fillColor=#d5e8d4;strokeColor=#82b366;" parent="1" source="WxK3m7Mp39lA3C4-1pTr-33" target="WxK3m7Mp39lA3C4-1pTr-31" edge="1">
                    <mxGeometry relative="1" as="geometry">
                        <Array as="points">
                            <mxPoint x="860" y="355"/>
                            <mxPoint x="860" y="185"/>
                        </Array>
                    </mxGeometry>
                </mxCell>
                <mxCell id="WxK3m7Mp39lA3C4-1pTr-33" value="" style="strokeColor=#dddddd;shadow=1;strokeWidth=1;rounded=1;absoluteArcSize=1;arcSize=2;" parent="1" vertex="1">
                    <mxGeometry x="870" y="340" width="200" height="60" as="geometry"/>
                </mxCell>
                <mxCell id="WxK3m7Mp39lA3C4-1pTr-34" value="&lt;font color=&quot;#000000&quot;&gt;fileBeats&lt;/font&gt;&lt;br&gt;-" style="sketch=0;dashed=0;connectable=0;html=1;fillColor=#5184F3;strokeColor=none;shape=mxgraph.gcp2.hexIcon;prIcon=container_optimized_os;part=1;labelPosition=right;verticalLabelPosition=middle;align=left;verticalAlign=middle;spacingLeft=5;fontColor=#999999;fontSize=12;" parent="WxK3m7Mp39lA3C4-1pTr-33" vertex="1">
                    <mxGeometry y="0.5" width="44" height="39" relative="1" as="geometry">
                        <mxPoint x="5" y="-19.5" as="offset"/>
                    </mxGeometry>
                </mxCell>
                <mxCell id="WxK3m7Mp39lA3C4-1pTr-70" value="Program Data" style="line;strokeWidth=2;html=1;shadow=1;glass=0;labelBackgroundColor=none;fillColor=#f8cecc;strokeColor=#b85450;" parent="1" vertex="1">
                    <mxGeometry x="20" y="560" width="160" height="10" as="geometry"/>
                </mxCell>
                <mxCell id="WxK3m7Mp39lA3C4-1pTr-71" value="Logs/Metrics" style="line;strokeWidth=2;html=1;shadow=1;glass=0;labelBackgroundColor=none;fillColor=#d5e8d4;strokeColor=#82b366;" parent="1" vertex="1">
                    <mxGeometry x="210" y="560" width="160" height="10" as="geometry"/>
                </mxCell>
                <mxCell id="WxK3m7Mp39lA3C4-1pTr-72" value="Raw" style="line;strokeWidth=2;html=1;shadow=1;glass=0;labelBackgroundColor=none;fillColor=#d5e8d4;strokeColor=#000000;" parent="1" vertex="1">
                    <mxGeometry x="400" y="560" width="160" height="10" as="geometry"/>
                </mxCell>
            </root>
        </mxGraphModel>
    </diagram>
</mxfile>